<?xml version="1.0" encoding="UTF-8" standalone="no"?>
<!DOCTYPE svg PUBLIC "-//W3C//DTD SVG 1.1//EN"
 "http://www.w3.org/Graphics/SVG/1.1/DTD/svg11.dtd">
<!-- Generated by graphviz version 2.47.0 (20210316.0004)
 -->
<!-- Title: dependencies Pages: 1 -->
<svg width="504pt" height="284pt"
 viewBox="0.00 0.00 504.00 284.00" xmlns="http://www.w3.org/2000/svg" xmlns:xlink="http://www.w3.org/1999/xlink">
<g id="graph0" class="graph" transform="scale(1 1) rotate(0) translate(4 280)">
<title>dependencies</title>
<polygon fill="white" stroke="transparent" points="-4,4 -4,-280 500,-280 500,4 -4,4"/>
<text text-anchor="start" x="227.01" y="-42.4" font-family="Times-12" font-weight="bold" font-size="14.00">Legend</text>
<polygon fill="#ffffb3" stroke="transparent" points="14,-10 14,-30 34,-30 34,-10 14,-10"/>
<text text-anchor="start" x="37.63" y="-15.4" font-family="Times-12" font-size="14.00"> &#160;Declarations</text>
<polygon fill="#8dd3c7" stroke="transparent" points="127,-10 127,-30 147,-30 147,-10 127,-10"/>
<text text-anchor="start" x="150.73" y="-15.4" font-family="Times-12" font-size="14.00"> &#160;Module</text>
<polygon fill="#80b1d3" stroke="transparent" points="213,-10 213,-30 233,-30 233,-10 213,-10"/>
<text text-anchor="start" x="236.78" y="-15.4" font-family="Times-12" font-size="14.00"> &#160;Bootstrap</text>
<polygon fill="#fdb462" stroke="transparent" points="310,-10 310,-30 330,-30 330,-10 310,-10"/>
<text text-anchor="start" x="333.67" y="-15.4" font-family="Times-12" font-size="14.00"> &#160;Providers</text>
<polygon fill="#fb8072" stroke="transparent" points="406,-10 406,-30 426,-30 426,-10 406,-10"/>
<text text-anchor="start" x="429.73" y="-15.4" font-family="Times-12" font-size="14.00"> &#160;Exports</text>
<g id="clust1" class="cluster">
<title>cluster_GuardsModule</title>
<polygon fill="none" stroke="black" stroke-dasharray="1,5" points="50,-70 50,-268 446,-268 446,-70 50,-70"/>
</g>
<g id="clust6" class="cluster">
<title>cluster_GuardsModule_providers</title>
<polygon fill="none" stroke="black" points="172,-78 172,-130 348,-130 348,-78 172,-78"/>
</g>
<g id="clust4" class="cluster">
<title>cluster_GuardsModule_exports</title>
<polygon fill="none" stroke="black" points="58,-208 58,-260 438,-260 438,-208 58,-208"/>
</g>
<!-- FeatureGuard  -->
<g id="node1" class="node">
<title>FeatureGuard </title>
<polygon fill="#fb8072" stroke="black" points="430.46,-252 333.54,-252 333.54,-216 430.46,-216 430.46,-252"/>
<text text-anchor="middle" x="382" y="-229.8" font-family="Times,serif" font-size="14.00">FeatureGuard </text>
</g>
<!-- UserLimitGuard  -->
<g id="node2" class="node">
<title>UserLimitGuard </title>
<polygon fill="#fb8072" stroke="black" points="316.02,-252 203.98,-252 203.98,-216 316.02,-216 316.02,-252"/>
<text text-anchor="middle" x="260" y="-229.8" font-family="Times,serif" font-size="14.00">UserLimitGuard </text>
</g>
<!-- UserLimitService  -->
<g id="node3" class="node">
<title>UserLimitService </title>
<polygon fill="#fb8072" stroke="black" points="185.52,-252 66.48,-252 66.48,-216 185.52,-216 185.52,-252"/>
<text text-anchor="middle" x="126" y="-229.8" font-family="Times,serif" font-size="14.00">UserLimitService </text>
</g>
<!-- GuardsModule -->
<g id="node4" class="node">
<title>GuardsModule</title>
<polygon fill="#8dd3c7" stroke="black" points="309.98,-187 306.98,-191 285.98,-191 282.98,-187 210.02,-187 210.02,-151 309.98,-151 309.98,-187"/>
<text text-anchor="middle" x="260" y="-164.8" font-family="Times,serif" font-size="14.00">GuardsModule</text>
</g>
<!-- GuardsModule&#45;&gt;FeatureGuard  -->
<g id="edge1" class="edge">
<title>GuardsModule&#45;&gt;FeatureGuard </title>
<path fill="none" stroke="black" stroke-dasharray="5,2" d="M310.1,-169C344.87,-169 384.96,-169 384.96,-169 384.96,-169 384.96,-205.89 384.96,-205.89"/>
<polygon fill="black" stroke="black" points="381.46,-205.89 384.96,-215.89 388.46,-205.89 381.46,-205.89"/>
</g>
<!-- GuardsModule&#45;&gt;UserLimitGuard  -->
<g id="edge2" class="edge">
<title>GuardsModule&#45;&gt;UserLimitGuard </title>
<path fill="none" stroke="black" stroke-dasharray="5,2" d="M260,-187.11C260,-187.11 260,-205.99 260,-205.99"/>
<polygon fill="black" stroke="black" points="256.5,-205.99 260,-215.99 263.5,-205.99 256.5,-205.99"/>
</g>
<!-- GuardsModule&#45;&gt;UserLimitService  -->
<g id="edge3" class="edge">
<title>GuardsModule&#45;&gt;UserLimitService </title>
<path fill="none" stroke="black" stroke-dasharray="5,2" d="M209.91,-169C170.93,-169 123.4,-169 123.4,-169 123.4,-169 123.4,-205.89 123.4,-205.89"/>
<polygon fill="black" stroke="black" points="119.9,-205.89 123.4,-215.89 126.9,-205.89 119.9,-205.89"/>
</g>
<!-- UserLimitService -->
<g id="node5" class="node">
<title>UserLimitService</title>
<ellipse fill="#fdb462" stroke="black" cx="260" cy="-104" rx="79.87" ry="18"/>
<text text-anchor="middle" x="260" y="-99.8" font-family="Times,serif" font-size="14.00">UserLimitService</text>
</g>
<!-- UserLimitService&#45;&gt;GuardsModule -->
<g id="edge4" class="edge">
<title>UserLimitService&#45;&gt;GuardsModule</title>
<path fill="none" stroke="black" d="M260,-122.11C260,-122.11 260,-140.99 260,-140.99"/>
<polygon fill="black" stroke="black" points="256.5,-140.99 260,-150.99 263.5,-140.99 256.5,-140.99"/>
</g>
</g>
</svg>
