<?xml version="1.0" encoding="UTF-8" standalone="no"?>
<!DOCTYPE svg PUBLIC "-//W3C//DTD SVG 1.1//EN"
 "http://www.w3.org/Graphics/SVG/1.1/DTD/svg11.dtd">
<!-- Generated by graphviz version 2.47.0 (20210316.0004)
 -->
<!-- Title: dependencies Pages: 1 -->
<svg width="614pt" height="211pt"
 viewBox="0.00 0.00 614.00 211.00" xmlns="http://www.w3.org/2000/svg" xmlns:xlink="http://www.w3.org/1999/xlink">
<g id="graph0" class="graph" transform="scale(1 1) rotate(0) translate(4 207)">
<title>dependencies</title>
<polygon fill="white" stroke="transparent" points="-4,4 -4,-207 610,-207 610,4 -4,4"/>
<text text-anchor="start" x="282.01" y="-42.4" font-family="Times-12" font-weight="bold" font-size="14.00">Legend</text>
<polygon fill="#ffffb3" stroke="transparent" points="69,-10 69,-30 89,-30 89,-10 69,-10"/>
<text text-anchor="start" x="92.63" y="-15.4" font-family="Times-12" font-size="14.00"> &#160;Declarations</text>
<polygon fill="#8dd3c7" stroke="transparent" points="182,-10 182,-30 202,-30 202,-10 182,-10"/>
<text text-anchor="start" x="205.73" y="-15.4" font-family="Times-12" font-size="14.00"> &#160;Module</text>
<polygon fill="#80b1d3" stroke="transparent" points="268,-10 268,-30 288,-30 288,-10 268,-10"/>
<text text-anchor="start" x="291.78" y="-15.4" font-family="Times-12" font-size="14.00"> &#160;Bootstrap</text>
<polygon fill="#fdb462" stroke="transparent" points="365,-10 365,-30 385,-30 385,-10 365,-10"/>
<text text-anchor="start" x="388.67" y="-15.4" font-family="Times-12" font-size="14.00"> &#160;Providers</text>
<polygon fill="#fb8072" stroke="transparent" points="461,-10 461,-30 481,-30 481,-10 461,-10"/>
<text text-anchor="start" x="484.73" y="-15.4" font-family="Times-12" font-size="14.00"> &#160;Exports</text>
<g id="clust1" class="cluster">
<title>cluster_AppModule</title>
<polygon fill="none" stroke="black" stroke-dasharray="1,5" points="8,-70 8,-195 598,-195 598,-70 8,-70"/>
</g>
<g id="clust3" class="cluster">
<title>cluster_AppModule_imports</title>
<polygon fill="none" stroke="black" points="154,-78 154,-130 590,-130 590,-78 154,-78"/>
</g>
<g id="clust6" class="cluster">
<title>cluster_AppModule_providers</title>
<polygon fill="none" stroke="black" points="16,-78 16,-130 146,-130 146,-78 16,-78"/>
</g>
<!-- AuthModule -->
<g id="node1" class="node">
<title>AuthModule</title>
<polygon fill="#8dd3c7" stroke="black" points="581.55,-122 578.55,-126 557.55,-126 554.55,-122 494.45,-122 494.45,-86 581.55,-86 581.55,-122"/>
<text text-anchor="middle" x="538" y="-99.8" font-family="Times,serif" font-size="14.00">AuthModule</text>
</g>
<!-- AppModule -->
<g id="node5" class="node">
<title>AppModule</title>
<polygon fill="#8dd3c7" stroke="black" points="356.66,-187 353.66,-191 332.66,-191 329.66,-187 273.34,-187 273.34,-151 356.66,-151 356.66,-187"/>
<text text-anchor="middle" x="315" y="-164.8" font-family="Times,serif" font-size="14.00">AppModule</text>
</g>
<!-- AuthModule&#45;&gt;AppModule -->
<g id="edge1" class="edge">
<title>AuthModule&#45;&gt;AppModule</title>
<path fill="none" stroke="black" d="M538,-122.28C538,-143.32 538,-175 538,-175 538,-175 366.68,-175 366.68,-175"/>
<polygon fill="black" stroke="black" points="366.68,-171.5 356.68,-175 366.68,-178.5 366.68,-171.5"/>
</g>
<!-- GuardsModule -->
<g id="node2" class="node">
<title>GuardsModule</title>
<polygon fill="#8dd3c7" stroke="black" points="475.98,-122 472.98,-126 451.98,-126 448.98,-122 376.02,-122 376.02,-86 475.98,-86 475.98,-122"/>
<text text-anchor="middle" x="426" y="-99.8" font-family="Times,serif" font-size="14.00">GuardsModule</text>
</g>
<!-- GuardsModule&#45;&gt;AppModule -->
<g id="edge2" class="edge">
<title>GuardsModule&#45;&gt;AppModule</title>
<path fill="none" stroke="black" d="M426,-122.02C426,-139.37 426,-163 426,-163 426,-163 366.96,-163 366.96,-163"/>
<polygon fill="black" stroke="black" points="366.96,-159.5 356.96,-163 366.96,-166.5 366.96,-159.5"/>
</g>
<!-- MailModule -->
<g id="node3" class="node">
<title>MailModule</title>
<polygon fill="#8dd3c7" stroke="black" points="357.99,-122 354.99,-126 333.99,-126 330.99,-122 272.01,-122 272.01,-86 357.99,-86 357.99,-122"/>
<text text-anchor="middle" x="315" y="-99.8" font-family="Times,serif" font-size="14.00">MailModule</text>
</g>
<!-- MailModule&#45;&gt;AppModule -->
<g id="edge3" class="edge">
<title>MailModule&#45;&gt;AppModule</title>
<path fill="none" stroke="black" d="M315,-122.11C315,-122.11 315,-140.99 315,-140.99"/>
<polygon fill="black" stroke="black" points="311.5,-140.99 315,-150.99 318.5,-140.99 311.5,-140.99"/>
</g>
<!-- UsersModule -->
<g id="node4" class="node">
<title>UsersModule</title>
<polygon fill="#8dd3c7" stroke="black" points="253.92,-122 250.92,-126 229.92,-126 226.92,-122 162.08,-122 162.08,-86 253.92,-86 253.92,-122"/>
<text text-anchor="middle" x="208" y="-99.8" font-family="Times,serif" font-size="14.00">UsersModule</text>
</g>
<!-- UsersModule&#45;&gt;AppModule -->
<g id="edge4" class="edge">
<title>UsersModule&#45;&gt;AppModule</title>
<path fill="none" stroke="black" d="M208,-122.02C208,-139.37 208,-163 208,-163 208,-163 263.32,-163 263.32,-163"/>
<polygon fill="black" stroke="black" points="263.32,-166.5 273.32,-163 263.32,-159.5 263.32,-166.5"/>
</g>
<!-- AppService -->
<g id="node6" class="node">
<title>AppService</title>
<ellipse fill="#fdb462" stroke="black" cx="81" cy="-104" rx="56.74" ry="18"/>
<text text-anchor="middle" x="81" y="-99.8" font-family="Times,serif" font-size="14.00">AppService</text>
</g>
<!-- AppService&#45;&gt;AppModule -->
<g id="edge5" class="edge">
<title>AppService&#45;&gt;AppModule</title>
<path fill="none" stroke="black" d="M81,-122.28C81,-143.32 81,-175 81,-175 81,-175 263.17,-175 263.17,-175"/>
<polygon fill="black" stroke="black" points="263.17,-178.5 273.17,-175 263.17,-171.5 263.17,-178.5"/>
</g>
</g>
</svg>
